<svg width="24" height="22" viewBox="0 0 24 22" fill="none" xmlns="http://www.w3.org/2000/svg">
<path d="M3 4.5C3 3.672 3.672 3 4.5 3C5.328 3 6 3.672 6 4.5C6 5.328 5.328 6 4.5 6C3.672 6 3 5.328 3 4.5ZM8.5 6C9.328 6 10 5.328 10 4.5C10 3.672 9.328 3 8.5 3C7.672 3 7 3.672 7 4.5C7 5.328 7.672 6 8.5 6ZM24 3V22H0V3C0 1.346 1.346 0 3 0H21C22.654 0 24 1.346 24 3ZM2 3V7H22V3C22 2.449 21.551 2 21 2H3C2.449 2 2 2.449 2 3ZM22 20V9H2V20H22ZM9.5 15C9.5 15.552 9.051 16 8.5 16C7.949 16 7.5 15.552 7.5 15V11H5.5V15C5.5 16.654 6.846 18 8.5 18C10.154 18 11.5 16.654 11.5 15V11H9.5V15ZM16.252 11L15.458 12.435L14.664 11H12.378L14.315 14.5L12.378 18H14.664L15.458 16.565L16.252 18H18.538L16.601 14.5L18.538 11H16.252Z" fill="#097D74"/>
</svg>
