<svg width="24" height="24" viewBox="0 0 24 24" fill="none" xmlns="http://www.w3.org/2000/svg">
<path d="M14.988 12.726C15.146 14.506 13.748 16 12 16H8.022C7.331 16 6.841 15.334 7.047 14.675C7.549 13.066 8.983 10.51 11.287 10.067C13.042 9.72903 14.83 10.946 14.988 12.726ZM23 9.00003C22.447 9.00003 22 9.44703 22 10V15C22 16.654 20.654 18 19 18H5C3.346 18 2 16.654 2 15V7.00003C2 5.34603 3.346 4.00003 5 4.00003H13C13.553 4.00003 14 3.55303 14 3.00003C14 2.44703 13.553 2.00003 13 2.00003H5C2.243 2.00003 0 4.24303 0 7.00003V15C0 17.757 2.243 20 5 20H11V22H8C7.448 22 7 22.447 7 23C7 23.553 7.448 24 8 24H16C16.553 24 17 23.553 17 23C17 22.447 16.553 22 16 22H13V20H19C21.757 20 24 17.757 24 15V10C24 9.44703 23.553 9.00003 23 9.00003ZM13.586 8.68503C13.593 8.68803 13.601 8.69103 13.608 8.69503C13.992 8.86303 14.438 8.75403 14.717 8.44103L20.358 2.31103C20.706 1.92203 21.304 1.88903 21.692 2.23703C21.705 2.24903 21.717 2.26003 21.73 2.27303C22.099 2.64103 22.099 3.23803 21.731 3.60703C21.731 3.60703 21.731 3.60703 21.73 3.60803L15.886 9.29403C15.555 9.62503 15.508 10.138 15.763 10.531C15.767 10.537 15.771 10.543 15.774 10.548C16.113 11.077 16.852 11.154 17.296 10.71L23.14 5.02503C24.288 3.87503 24.288 2.01203 23.14 0.862027C21.991 -0.287973 20.128 -0.288973 18.978 0.860027C18.939 0.899027 13.217 7.11603 13.217 7.11603C12.762 7.62703 12.958 8.41403 13.586 8.68503Z" fill="#097D74"/>
</svg>
