<svg width="22" height="22" viewBox="0 0 22 22" fill="none" xmlns="http://www.w3.org/2000/svg">
<path d="M6 10H0V12H6V10ZM8.17 6.76L6.05 4.64L4.64 6.05L6.76 8.17L8.17 6.76ZM12 0H10V6H12V0ZM17.36 6.05L15.95 4.64L13.83 6.76L15.24 8.17L17.36 6.05ZM16 10V12H22V10H16ZM11 8C10.2044 8 9.44129 8.31607 8.87868 8.87868C8.31607 9.44129 8 10.2044 8 11C8 11.7956 8.31607 12.5587 8.87868 13.1213C9.44129 13.6839 10.2044 14 11 14C11.7956 14 12.5587 13.6839 13.1213 13.1213C13.6839 12.5587 14 11.7956 14 11C14 10.2044 13.6839 9.44129 13.1213 8.87868C12.5587 8.31607 11.7956 8 11 8ZM13.83 15.24L15.95 17.36L17.36 15.95L15.24 13.83L13.83 15.24ZM4.64 15.95L6.05 17.36L8.17 15.24L6.76 13.83L4.64 15.95ZM10 22H12V16H10V22Z" fill="#202020"/>
</svg>
