<svg width="33" height="34" viewBox="0 0 33 34" fill="none" xmlns="http://www.w3.org/2000/svg">
<path d="M30.1324 17.0341C30.1324 20.6406 28.6997 24.0993 26.1495 26.6495C23.5993 29.1997 20.1406 30.6324 16.5341 30.6324C14.7483 30.6324 12.9801 30.2806 11.3302 29.5973C9.68042 28.9139 8.18135 27.9122 6.91864 26.6495C4.36846 24.0993 2.93579 20.6406 2.93579 17.0341C2.93579 13.4276 4.36846 9.96881 6.91864 7.41864C9.46881 4.86846 12.9276 3.43579 16.5341 3.43579C18.3198 3.43579 20.0881 3.78752 21.7379 4.4709C23.3877 5.15428 24.8868 6.15592 26.1495 7.41864C27.4122 8.68135 28.4139 10.1804 29.0973 11.8302C29.7806 13.4801 30.1324 15.2483 30.1324 17.0341ZM8.37511 18.3939H19.2537L14.4943 23.1533L16.4253 25.0843L24.4755 17.0341L16.4253 8.98389L14.4943 10.9148L19.2537 15.6742H8.37511V18.3939Z" fill="#F5A101"/>
</svg>
